<svg width="600" height="583" viewBox="0 0 600 583" fill="none" xmlns="http://www.w3.org/2000/svg" xmlns:xlink="http://www.w3.org/1999/xlink">
<mask fill-rule="evenodd" clip-rule="evenodd" d="M0.966069 293.59C-1.0398 247.508 -1.81135 199.607 18.4652 158.047C38.7427 116.485 77.1762 87.2046 114.931 60.001C151.739 33.4802 190.794 6.12255 236.102 1.23339C280.365 -3.5431 320.926 21.9422 363.987 33.1252C405.728 43.9656 450.892 43.6056 487.305 66.4723C525.015 90.1536 554.531 125.474 574.149 165.103C593.811 204.821 601.575 249.425 599.739 293.59C597.937 336.942 581.441 377.41 563.674 417.099C545.504 457.689 528.799 500.894 494.232 529.279C459.481 557.815 413.717 568.751 369.24 576.761C325.841 584.576 281.753 584.175 238.56 575.319C194.899 566.368 152.598 551.093 116.704 524.985C80.1857 498.423 50.1039 463.782 30.0261 423.641C9.86246 383.328 2.92107 338.504 0.966069 293.59Z" fill="url(#pattern0)"/>
</svg>
